<?xml version="1.0" encoding="UTF-8"?>
<svg id="Capa_1" data-name="Capa 1" xmlns="http://www.w3.org/2000/svg" viewBox="0 0 51.09 34.35">
  <defs>
    <style>
      .cls-1 {
        fill: #1d1d1b;
      }
    </style>
  </defs>
  <path class="cls-1" d="M15.11,1.61c-3.14,6.4-7.49,12.01-12.91,16.64-1.16.99-.89,3.27.51,3.93,5.69,2.68,10.95,6.13,15.63,10.33,2.39,2.14,5.94-1.38,3.54-3.54-4.99-4.48-10.58-8.25-16.65-11.11l.51,3.93c5.7-4.88,10.39-10.92,13.69-17.65.59-1.21.33-2.7-.9-3.42-1.1-.64-2.82-.32-3.42.9h0Z"/>
  <path class="cls-1" d="M6.83,22.04c13.92-.79,27.87-.89,41.8-.31,3.22.13,3.21-4.87,0-5-13.93-.58-27.88-.48-41.8.31-3.2.18-3.22,5.18,0,5h0Z"/>
</svg>