<?xml version="1.0" encoding="UTF-8"?>
<svg id="Capa_1" data-name="Capa 1" xmlns="http://www.w3.org/2000/svg" viewBox="0 0 32.79 109.75">
  <defs>
    <style>
      .cls-1 {
        fill: #1d1d1b;
      }
    </style>
  </defs>
  <path class="cls-1" d="M19.08,2.35C10.49,6.34,4.47,14.76,3.31,24.13c-.61,4.94.23,9.97,2.19,14.53,1.8,4.17,5.02,9.19,9.8,10.22,2.62.56,5.23-.18,7-2.23s2.35-4.88.81-7.15c-.79-1.15-2.15-1.56-3.42-.9-7.45,3.91-10,12.69-10.4,20.54-.51,10.11,1.82,20.31,3.78,30.17,1.16,5.84,2.29,11.69,2.86,17.62.13,1.34,1.06,2.5,2.5,2.5,1.25,0,2.63-1.15,2.5-2.5-.96-10.1-3.42-19.94-5.13-29.91-1.41-8.24-2.77-17.37-.19-25.53,1.14-3.6,3.21-6.78,6.6-8.57l-3.42-.9c.27.4.3.37.13.77-.11.26-.45.7-.79.95-.99.71-2.29.23-3.38-.54-2.77-1.96-4.53-5.61-5.52-8.75-2.22-7.03-1.02-14.6,3.35-20.54,2.33-3.16,5.48-5.6,9.02-7.25,1.22-.57,1.53-2.33.9-3.42-.73-1.26-2.19-1.47-3.42-.9h0Z"/>
  <path class="cls-1" d="M1.22,96.11c6.4,3.14,12.01,7.49,16.64,12.91.99,1.16,3.27.89,3.93-.51,2.68-5.69,6.13-10.95,10.33-15.63,2.14-2.39-1.38-5.94-3.54-3.54-4.48,4.99-8.25,10.58-11.11,16.65l3.93-.51c-4.88-5.7-10.92-10.39-17.65-13.69-1.21-.59-2.7-.33-3.42.9-.64,1.1-.32,2.82.9,3.42h0Z"/>
</svg>